<?xml version="1.0" standalone="no"?>
<!DOCTYPE svg PUBLIC "-//W3C//DTD SVG 20010904//EN"
 "http://www.w3.org/TR/2001/REC-SVG-20010904/DTD/svg10.dtd">
<svg version="1.0" xmlns="http://www.w3.org/2000/svg"
 width="80" height="57" viewBox="0 0 325.000000 216.000000"
 preserveAspectRatio="xMidYMid meet">

<g transform="translate(0.000000,216.000000) scale(0.100000,-0.100000)"
fill="#000000" stroke="none">
  
  <!-- Background Rectangle -->
  <rect width="100%" height="100%" fill="white"/>
  
  <path d="M0 1080 l0 -1080 1625 0 1625 0 0 1080 0 1080 -1625 0 -1625 0 0
  -1080z m1020 34 l0 -477 -59 6 c-79 7 -143 40 -202 105 -90 99 -141 242 -141
  399 0 175 62 310 184 402 33 25 93 40 156 41 l62 0 0 -476z m490 321 l0 -155
  -107 0 c-119 0 -167 15 -213 64 -23 25 -25 37 -28 137 l-4 109 176 0 176 0 0
  -155z m630 -320 l0 -475 -190 0 -190 0 0 475 0 475 190 0 190 0 0 -475z m331
  459 c68 -19 122 -61 150 -116 30 -59 39 -172 39 -510 l0 -308 -195 0 -195 0 0
  475 0 475 72 0 c39 0 97 -7 129 -16z m-967 -609 c-2 -148 -14 -195 -63 -244
  -49 -49 -113 -71 -228 -78 l-93 -6 0 227 0 226 193 -2 192 -3 -1 -120z"/>
</g>
</svg>
